HIERARCHY
ROOT Hips
{
	OFFSET 0.000000 97.167313 0.000000
	CHANNELS 6 Xposition Yposition Zposition Xrotation Yrotation Zrotation
	JOINT Spine
	{
		OFFSET 0.000000 13.784798 0.064400
		CHANNELS 3 Xrotation Yrotation Zrotation
		JOINT Spine1
		{
			OFFSET 0.000000 12.037903 0.404700
			CHANNELS 3 Xrotation Yrotation Zrotation
			JOINT Spine2
			{
				OFFSET 0.000000 17.795601 0.420200
				CHANNELS 3 Xrotation Yrotation Zrotation
				JOINT Neck
				{
					OFFSET 0.000000 39.131302 11.954600
					CHANNELS 3 Xrotation Yrotation Zrotation
					JOINT Head
					{
						OFFSET 0.000000 14.456192 15.627699
						CHANNELS 3 Xrotation Yrotation Zrotation
						JOINT HeadTop_End
						{
							OFFSET 0.000000 15.703506 7.603401
							CHANNELS 3 Xrotation Yrotation Zrotation
							End Site
							{
								OFFSET 0.000000 17.447403 0.000000
							}
						}
					}
				}
				JOINT LeftShoulder
				{
					OFFSET 17.399500 24.608795 1.168800
					CHANNELS 3 Xrotation Yrotation Zrotation
					JOINT LeftArm
					{
						OFFSET 18.980635 5.765305 1.818600
						CHANNELS 3 Xrotation Yrotation Zrotation
						JOINT LeftForeArm
						{
							OFFSET 49.290169 0.000000 0.000000
							CHANNELS 3 Xrotation Yrotation Zrotation
							JOINT LeftHand
							{
								OFFSET 31.562012 0.000000 0.000000
								CHANNELS 3 Xrotation Yrotation Zrotation
								JOINT LeftHandThumb1
								{
									OFFSET 6.133995 -4.388519 7.076070
									CHANNELS 3 Xrotation Yrotation Zrotation
									JOINT LeftHandThumb2
									{
										OFFSET 6.037666 -3.485840 3.485847
										CHANNELS 3 Xrotation Yrotation Zrotation
										JOINT LeftHandThumb3
										{
											OFFSET 6.496506 -3.750763 3.750761
											CHANNELS 3 Xrotation Yrotation Zrotation
											JOINT LeftHandThumb4
											{
												OFFSET 5.616882 -3.242905 3.242910
												CHANNELS 3 Xrotation Yrotation Zrotation
												End Site
												{
													OFFSET -1.254608 7.132141 0.375429
												}
											}
										}
									}
								}
								JOINT LeftHandPinky1
								{
									OFFSET 18.920792 -0.453171 -11.426712
									CHANNELS 3 Xrotation Yrotation Zrotation
									JOINT LeftHandPinky2
									{
										OFFSET 4.919586 0.000000 0.000000
										CHANNELS 3 Xrotation Yrotation Zrotation
										JOINT LeftHandPinky3
										{
											OFFSET 5.233047 0.000000 0.000000
											CHANNELS 3 Xrotation Yrotation Zrotation
											JOINT LeftHandPinky4
											{
												OFFSET 5.571716 0.000000 0.000000
												CHANNELS 3 Xrotation Yrotation Zrotation
												End Site
												{
													OFFSET -3.459808 4.342407 -0.466164
												}
											}
										}
									}
								}
								JOINT LeftHandRing1
								{
									OFFSET 22.726120 -0.094986 -6.500475
									CHANNELS 3 Xrotation Yrotation Zrotation
									JOINT LeftHandRing2
									{
										OFFSET 6.408615 0.000000 0.000000
										CHANNELS 3 Xrotation Yrotation Zrotation
										JOINT LeftHandRing3
										{
											OFFSET 6.150223 0.000000 0.000000
											CHANNELS 3 Xrotation Yrotation Zrotation
											JOINT LeftHandRing4
											{
												OFFSET 6.145386 0.000000 0.000000
												CHANNELS 3 Xrotation Yrotation Zrotation
												End Site
												{
													OFFSET -3.671402 4.923981 -0.202372
												}
											}
										}
									}
								}
								JOINT LeftHandMiddle1
								{
									OFFSET 23.373947 0.000000 0.000001
									CHANNELS 3 Xrotation Yrotation Zrotation
									JOINT LeftHandMiddle2
									{
										OFFSET 6.996567 0.000000 0.000000
										CHANNELS 3 Xrotation Yrotation Zrotation
										JOINT LeftHandMiddle3
										{
											OFFSET 7.015945 0.000000 0.000000
											CHANNELS 3 Xrotation Yrotation Zrotation
											JOINT LeftHandMiddle4
											{
												OFFSET 7.721573 0.000000 0.000000
												CHANNELS 3 Xrotation Yrotation Zrotation
												End Site
												{
													OFFSET -4.651108 6.158463 0.251582
												}
											}
										}
									}
								}
								JOINT LeftHandIndex1
								{
									OFFSET 21.310577 -0.490082 6.209344
									CHANNELS 3 Xrotation Yrotation Zrotation
									JOINT LeftHandIndex2
									{
										OFFSET 7.536453 0.000000 0.000000
										CHANNELS 3 Xrotation Yrotation Zrotation
										JOINT LeftHandIndex3
										{
											OFFSET 7.512344 0.000000 0.000000
											CHANNELS 3 Xrotation Yrotation Zrotation
											JOINT LeftHandIndex4
											{
												OFFSET 10.212402 0.000000 0.000001
												CHANNELS 3 Xrotation Yrotation Zrotation
												End Site
												{
													OFFSET -5.180801 8.690506 1.388433
												}
											}
										}
									}
								}
							}
						}
					}
				}
				JOINT RightShoulder
				{
					OFFSET -17.399500 24.608795 1.168800
					CHANNELS 3 Xrotation Yrotation Zrotation
					JOINT RightArm
					{
						OFFSET -18.980635 5.765305 1.818600
						CHANNELS 3 Xrotation Yrotation Zrotation
						JOINT RightForeArm
						{
							OFFSET -49.290169 0.000000 0.000000
							CHANNELS 3 Xrotation Yrotation Zrotation
							JOINT RightHand
							{
								OFFSET -31.562012 0.000000 0.000000
								CHANNELS 3 Xrotation Yrotation Zrotation
								JOINT RightHandThumb1
								{
									OFFSET -6.133995 -4.388519 7.076070
									CHANNELS 3 Xrotation Yrotation Zrotation
									JOINT RightHandThumb2
									{
										OFFSET -6.037666 -3.485840 3.485847
										CHANNELS 3 Xrotation Yrotation Zrotation
										JOINT RightHandThumb3
										{
											OFFSET -6.496506 -3.750763 3.750761
											CHANNELS 3 Xrotation Yrotation Zrotation
											JOINT RightHandThumb4
											{
												OFFSET -5.616882 -3.242905 3.242910
												CHANNELS 3 Xrotation Yrotation Zrotation
												End Site
												{
													OFFSET 1.254608 7.132141 0.375429
												}
											}
										}
									}
								}
								JOINT RightHandIndex1
								{
									OFFSET -21.310577 -0.490082 6.209344
									CHANNELS 3 Xrotation Yrotation Zrotation
									JOINT RightHandIndex2
									{
										OFFSET -7.536453 0.000000 0.000000
										CHANNELS 3 Xrotation Yrotation Zrotation
										JOINT RightHandIndex3
										{
											OFFSET -7.512344 0.000000 0.000000
											CHANNELS 3 Xrotation Yrotation Zrotation
											JOINT RightHandIndex4
											{
												OFFSET -10.212402 0.000000 0.000001
												CHANNELS 3 Xrotation Yrotation Zrotation
												End Site
												{
													OFFSET 5.180801 8.690506 1.388433
												}
											}
										}
									}
								}
								JOINT RightHandMiddle1
								{
									OFFSET -23.373947 0.000000 0.000001
									CHANNELS 3 Xrotation Yrotation Zrotation
									JOINT RightHandMiddle2
									{
										OFFSET -6.996567 0.000000 0.000000
										CHANNELS 3 Xrotation Yrotation Zrotation
										JOINT RightHandMiddle3
										{
											OFFSET -7.015945 0.000000 0.000000
											CHANNELS 3 Xrotation Yrotation Zrotation
											JOINT RightHandMiddle4
											{
												OFFSET -7.721573 0.000000 0.000000
												CHANNELS 3 Xrotation Yrotation Zrotation
												End Site
												{
													OFFSET 4.651108 6.158463 0.251582
												}
											}
										}
									}
								}
								JOINT RightHandRing1
								{
									OFFSET -22.726120 -0.094986 -6.500475
									CHANNELS 3 Xrotation Yrotation Zrotation
									JOINT RightHandRing2
									{
										OFFSET -6.408615 0.000000 0.000000
										CHANNELS 3 Xrotation Yrotation Zrotation
										JOINT RightHandRing3
										{
											OFFSET -6.150223 0.000000 0.000000
											CHANNELS 3 Xrotation Yrotation Zrotation
											JOINT RightHandRing4
											{
												OFFSET -6.145386 0.000000 0.000000
												CHANNELS 3 Xrotation Yrotation Zrotation
												End Site
												{
													OFFSET 3.671402 4.923981 -0.202372
												}
											}
										}
									}
								}
								JOINT RightHandPinky1
								{
									OFFSET -18.920792 -0.453171 -11.426712
									CHANNELS 3 Xrotation Yrotation Zrotation
									JOINT RightHandPinky2
									{
										OFFSET -4.919586 0.000000 0.000000
										CHANNELS 3 Xrotation Yrotation Zrotation
										JOINT RightHandPinky3
										{
											OFFSET -5.233047 0.000000 0.000000
											CHANNELS 3 Xrotation Yrotation Zrotation
											JOINT RightHandPinky4
											{
												OFFSET -5.571716 0.000000 0.000000
												CHANNELS 3 Xrotation Yrotation Zrotation
												End Site
												{
													OFFSET 3.459808 4.342407 -0.466164
												}
											}
										}
									}
								}
							}
						}
					}
				}
			}
		}
	}
	JOINT LeftUpLeg
	{
		OFFSET 19.899099 -7.885101 -3.429500
		CHANNELS 3 Xrotation Yrotation Zrotation
		JOINT LeftLeg
		{
			OFFSET 1.745560 -36.997807 10.304700
			CHANNELS 3 Xrotation Yrotation Zrotation
			JOINT LeftFoot
			{
				OFFSET -1.745558 -29.803308 -13.615400
				CHANNELS 3 Xrotation Yrotation Zrotation
				JOINT LeftToeBase
				{
					OFFSET 1.181900 -18.539904 15.226099
					CHANNELS 3 Xrotation Yrotation Zrotation
					JOINT LeftToe_End
					{
						OFFSET -0.863701 1.402801 16.534700
						CHANNELS 3 Xrotation Yrotation Zrotation
						End Site
						{
							OFFSET 0.000000 16.616566 0.000000
						}
					}
				}
			}
		}
	}
	JOINT RightUpLeg
	{
		OFFSET -19.899099 -7.885101 -3.429500
		CHANNELS 3 Xrotation Yrotation Zrotation
		JOINT RightLeg
		{
			OFFSET -1.745560 -36.997807 10.304700
			CHANNELS 3 Xrotation Yrotation Zrotation
			JOINT RightFoot
			{
				OFFSET 1.745558 -29.803308 -13.615400
				CHANNELS 3 Xrotation Yrotation Zrotation
				JOINT RightToeBase
				{
					OFFSET -1.181900 -18.539904 15.226099
					CHANNELS 3 Xrotation Yrotation Zrotation
					JOINT RightToe_End
					{
						OFFSET 0.863701 1.402801 16.534700
						CHANNELS 3 Xrotation Yrotation Zrotation
						End Site
						{
							OFFSET 0.000000 16.616566 0.000000
						}
					}
				}
			}
		}
	}
}
MOTION
Frames: 5
Frame Time: 0.033333
-105.495529 61.829651 -2.331865 18.870436 12.405667 -8.413671 18.288173 -13.832965 12.812046 2.886074 -3.530757 2.345482 2.810494 -3.478468 2.454213 1.479334 1.772710 -1.610511 -7.221377 13.090838 -6.838707 -0.000000 0.000001 -0.000000 6.771943 -14.266235 4.754658 -56.583264 -56.219461 -36.386631 0.000073 -74.449772 0.000054 34.651404 -24.403149 28.175340 -5.456654 -6.701463 3.223876 7.996832 27.102105 1.079558 -6.395300 2.365518 12.500796 0.000000 0.000001 -0.000001 -0.131709 3.485147 -24.077856 0.147183 1.306272 -12.856830 0.175232 1.423550 -14.034233 -0.000001 0.000000 -0.000002 -0.093070 2.829132 -18.333032 0.340492 1.969893 -19.611092 0.067601 0.888356 -8.703011 -0.000000 0.000000 0.000005 -1.147677 -0.975072 -16.450727 0.299672 1.851410 -18.386893 0.027898 0.571687 -5.587735 -0.000000 -0.000000 0.000001 -1.556705 -6.445319 -10.416304 0.167955 1.394104 -13.737989 0.214662 1.572868 -15.542345 -0.000001 0.000003 0.000001 0.536529 3.826453 24.796519 -21.725268 -23.552972 26.663947 -0.000001 4.608284 0.000017 -37.133047 12.225637 -12.889638 -6.364131 8.787489 -2.547492 8.531950 -31.446034 -1.774723 -2.588844 -22.552223 -16.683224 0.000000 -0.000001 0.000002 -1.553750 5.521610 20.488425 0.490393 -2.082030 26.504650 0.332907 -1.730823 21.773583 -0.000004 0.000001 -0.000001 -1.715431 0.160118 26.650942 0.674376 -2.415779 31.190612 0.138601 -1.128955 13.999166 0.000001 0.000003 -0.000004 0.024088 -3.597505 32.389122 0.916966 -2.776886 36.541874 0.206784 -1.373693 17.119922 0.000002 -0.000001 -0.000005 0.078012 -4.147085 38.163129 0.620639 -2.324786 29.891534 0.142887 -1.145931 14.214273 -0.000003 -0.000000 0.000002 34.655263 -6.044427 -5.294381 15.945223 5.887101 0.615303 -53.219352 26.989752 4.278331 -24.140457 -0.000002 -0.000002 -0.000000 -0.000003 -0.000000 -88.148646 -12.646718 -3.672498 44.940640 -17.610154 5.115836 12.164658 -26.826382 -20.500386 -1.232795 -0.000001 0.000002 -0.000000 -0.000001 -0.000000 
-104.563354 63.016640 -0.745787 20.755596 11.766858 -8.823754 17.708049 -13.709898 14.852337 2.757013 -3.685674 2.807596 2.659104 -3.700683 2.933928 1.313358 1.767948 -1.609977 -8.268554 12.903764 -7.776204 0.000001 0.000000 -0.000000 7.657580 -13.043322 4.715337 -53.395707 -55.338739 -31.677051 0.000037 -76.082263 0.000019 34.455606 -24.156327 26.558031 -5.456658 -6.701465 3.223878 7.997133 27.104028 1.079677 -6.678184 0.807660 12.101093 0.000001 0.000001 0.000001 -0.122537 3.484580 -24.117161 0.157970 1.352640 -13.321710 0.200919 1.522613 -15.033460 -0.000000 0.000001 -0.000000 -0.093672 2.824105 -18.293121 0.328889 1.937035 -19.270668 0.080303 0.967696 -9.487263 -0.000001 0.000001 0.000005 -1.148187 -0.974092 -16.459129 0.299988 1.852355 -18.396638 0.036455 0.653254 -6.388145 0.000000 -0.000000 0.000004 -1.557968 -6.444129 -10.424605 0.168189 1.395089 -13.747916 0.214792 1.573334 -15.547071 -0.000001 0.000001 0.000001 0.571444 3.616253 25.407144 -22.538229 -22.845786 25.554629 0.000018 6.076489 -0.000015 -38.642673 12.212975 -17.748824 -6.363448 8.785650 -2.546956 8.454418 -30.908341 -1.749400 -2.619029 -22.291284 -16.634535 0.000000 0.000001 0.000002 -1.630801 5.752863 18.134207 0.396415 -1.881935 23.787934 0.293944 -1.629922 20.444822 0.000000 -0.000001 0.000001 -1.621093 0.448239 24.302897 0.563606 -2.222692 28.453988 0.087478 -0.899404 11.111065 -0.000001 -0.000000 -0.000001 -0.038069 -3.361530 29.602316 0.789203 -2.595806 33.816372 0.143754 -1.149325 14.257281 -0.000005 0.000001 -0.000002 -0.026247 -3.911266 35.246597 0.467574 -2.035669 25.869768 0.112487 -1.018460 12.604868 0.000002 -0.000001 0.000004 34.121419 -6.755699 -5.864265 11.361270 6.629030 2.092820 -47.835052 27.919969 2.798522 -28.046577 -0.000006 0.000003 0.000001 -0.000002 -0.000000 -88.096442 -12.596680 -3.754165 45.262895 -16.700501 5.295189 10.883337 -26.845560 -19.177450 -1.233297 -0.000005 0.000002 -0.000000 -0.000003 -0.000000 
-103.103165 64.708763 1.896069 22.928018 10.783965 -8.970429 17.051615 -13.264088 17.046458 2.615277 -3.808929 3.271149 2.493875 -3.858544 3.403707 1.144469 1.786646 -1.682232 -8.969058 12.690518 -8.883405 -0.000001 0.000000 -0.000000 8.704465 -11.400643 4.510520 -50.200699 -53.092877 -26.008782 0.000054 -78.299752 0.000023 33.680769 -23.654017 24.838423 -5.456658 -6.701466 3.223879 7.999206 27.117118 1.080429 -6.976854 -0.773935 11.686385 -0.000001 0.000000 0.000002 -0.111314 3.492083 -24.234290 0.171972 1.410462 -13.902569 0.230134 1.627450 -16.096335 -0.000000 0.000002 0.000001 -0.093643 2.826830 -18.325951 0.319635 1.910383 -18.995053 0.095782 1.056134 -10.363673 -0.000000 0.000001 0.000002 -1.151481 -0.966692 -16.516878 0.302162 1.858883 -18.463834 0.047352 0.744158 -7.281722 0.000000 0.000000 0.000008 -1.566779 -6.435922 -10.481860 0.169859 1.401891 -13.816294 0.215688 1.576550 -15.579721 0.000000 0.000001 0.000001 0.579155 3.531577 26.236473 -23.426415 -21.893873 24.022518 0.000000 7.205975 0.000015 -40.441499 12.419901 -22.661926 -6.362801 8.783804 -2.546531 8.385135 -30.426673 -1.725753 -2.675297 -21.804334 -16.544503 0.000000 0.000000 -0.000000 -1.692298 5.976789 16.026884 0.320393 -1.699124 21.354901 0.261034 -1.538772 19.254281 -0.000003 -0.000001 -0.000001 -1.525749 0.703306 22.199103 0.472342 -2.045429 26.003164 0.052121 -0.695614 8.571451 -0.000001 0.000001 -0.000004 -0.085091 -3.140468 27.025955 0.676876 -2.419884 31.249632 0.097615 -0.949509 11.738817 0.000000 -0.000002 0.000002 -0.110331 -3.688044 32.563224 0.346918 -1.765497 22.233029 0.090091 -0.912543 11.275586 -0.000001 -0.000001 -0.000001 31.258555 -6.695412 -5.700404 10.388555 7.934143 3.088833 -36.537288 29.012960 -4.130874 -38.110676 -0.000031 -0.000006 -0.000001 -0.000001 -0.000001 -87.516915 -12.468645 -4.029113 46.202890 -15.074800 5.690616 8.510119 -26.817583 -17.364643 -1.233687 0.000002 0.000003 -0.000000 -0.000001 0.000000 
-101.336945 66.542480 5.109074 24.673865 9.752503 -8.047817 16.774851 -12.453648 18.353893 2.535258 -3.818714 3.571768 2.397402 -3.864764 3.705145 0.989176 1.814390 -1.829806 -9.427393 12.483750 -9.498617 -0.000000 -0.000000 -0.000000 9.787876 -9.714006 4.294615 -48.200461 -49.499668 -20.458291 -0.000064 -80.348788 -0.000037 32.726735 -23.131703 23.283473 -5.456656 -6.701464 3.223879 8.002825 27.139975 1.081730 -7.288183 -2.358417 11.261280 -0.000000 0.000000 0.000002 -0.098133 3.507520 -24.427769 0.189357 1.478880 -14.591874 0.262792 1.736598 -17.208991 -0.000002 0.000002 -0.000005 -0.092981 2.837271 -18.431124 0.312766 1.890317 -18.787890 0.114230 1.152433 -11.320862 -0.000001 0.000001 0.000002 -1.157165 -0.953735 -16.617268 0.305966 1.870220 -18.580664 0.060858 0.843148 -8.256814 -0.000000 0.000000 0.000008 -1.581635 -6.420753 -10.581265 0.172781 1.413698 -13.935124 0.217254 1.582150 -15.636448 -0.000002 -0.000000 0.000001 0.566406 3.585692 26.935787 -24.252120 -20.600318 22.542252 0.000003 7.926915 0.000018 -42.440528 12.665060 -27.160973 -6.362197 8.781958 -2.546228 8.326676 -30.018818 -1.704665 -2.761492 -21.067879 -16.409034 -0.000001 -0.000002 0.000001 -1.738006 6.178537 14.243195 0.262111 -1.541863 19.294596 0.234635 -1.461064 18.246070 -0.000000 -0.000002 0.000003 -1.437026 0.916743 20.416912 0.401027 -1.892370 23.927864 0.029734 -0.526073 6.471638 0.000001 -0.000000 -0.000004 -0.118256 -2.941972 24.732349 0.581293 -2.255016 28.906699 0.066107 -0.782728 9.654688 -0.000003 -0.000001 -0.000003 -0.174143 -3.485592 30.190170 0.256798 -1.526582 19.095701 0.075043 -0.833518 10.287928 0.000003 -0.000004 0.000005 26.108658 -5.824708 -3.752527 12.771718 8.005196 2.378682 -16.110519 27.480322 -18.854435 -48.988757 0.000004 0.000000 -0.000000 -0.000001 0.000000 -86.586697 -11.332776 -4.607532 47.751393 -12.990835 6.018756 5.754903 -26.969080 -15.155988 -1.233978 -0.000024 -0.000001 0.000000 -0.000002 -0.000000 
-99.647186 67.249741 7.030693 25.965249 9.264120 -6.309380 16.997472 -11.587518 18.703749 2.535535 -3.698192 3.661747 2.394127 -3.746709 3.798360 0.830066 1.826964 -2.035559 -9.983038 12.249371 -9.427638 0.000000 -0.000000 0.000000 10.805058 -8.304124 4.453207 -47.863541 -44.757922 -15.767348 0.000001 -81.570572 -0.000007 32.249766 -22.680574 22.435524 -5.456656 -6.701464 3.223877 8.007743 27.171036 1.083504 -7.608593 -3.925426 10.830723 0.000000 0.000000 0.000002 -0.083168 3.530700 -24.695681 0.210274 1.557015 -15.381675 0.298730 1.848568 -18.357605 0.000000 0.000000 -0.000002 -0.091657 2.855346 -18.607857 0.308310 1.877173 -18.652309 0.135791 1.255323 -12.347159 -0.000001 0.000000 -0.000000 -1.164832 -0.936177 -16.753230 0.311150 1.885562 -18.738873 0.077198 0.948928 -9.301600 0.000001 -0.000001 0.000001 -1.601393 -6.398561 -10.715696 0.176770 1.429693 -14.096034 0.219373 1.589726 -15.713270 -0.000000 0.000001 0.000001 0.520979 3.876848 27.226324 -24.975372 -19.110868 21.532383 0.000004 8.446237 0.000014 -44.585795 12.761430 -31.079263 -6.361616 8.780071 -2.546032 8.282602 -29.709147 -1.687246 -2.877636 -20.096069 -16.230903 -0.000000 0.000003 0.000002 -1.768275 6.339065 12.887649 0.221624 -1.420964 17.728333 0.215510 -1.401715 17.480382 -0.000002 -0.000003 -0.000001 -1.364599 1.076912 19.061584 0.350554 -1.774328 22.350254 0.016907 -0.396752 4.876490 0.000003 0.000001 -0.000004 -0.139733 -2.773150 22.787977 0.503178 -2.107434 26.854262 0.046198 -0.655150 8.069273 -0.000003 -0.000001 -0.000005 -0.219548 -3.311891 28.196503 0.193363 -1.329389 16.551112 0.066390 -0.784374 9.675340 -0.000001 -0.000002 0.000002 18.523818 -4.623168 -1.743622 15.576310 7.080211 0.429507 5.923494 14.033465 -26.552120 -68.807039 0.320777 -1.033944 0.000000 -0.000001 0.000000 -87.518164 -8.571544 -5.722962 49.828607 -11.666378 5.800302 4.883979 -27.373032 -12.599002 -1.234451 0.000002 -0.000003 -0.000000 0.000002 0.000000 
